<?xml version="1.0" standalone="no"?>
<!DOCTYPE svg PUBLIC "-//W3C//DTD SVG 20010904//EN"
 "http://www.w3.org/TR/2001/REC-SVG-20010904/DTD/svg10.dtd">
<svg version="1.0" xmlns="http://www.w3.org/2000/svg"
 width="124.000000pt" height="124.000000pt" viewBox="0 0 124.000000 124.000000"
 preserveAspectRatio="xMidYMid meet">

<g transform="translate(0.000000,124.000000) scale(0.100000,-0.100000)"
fill="#000000" stroke="none">
<path d="M618 723 c6 -2 18 -2 25 0 6 3 1 5 -13 5 -14 0 -19 -2 -12 -5z"/>
<path d="M256 561 c-10 -11 -16 -29 -13 -43 l4 -23 2 24 c0 14 8 33 18 43 9
10 14 18 11 18 -3 0 -13 -9 -22 -19z"/>
<path d="M337 562 c-18 -20 -40 -73 -33 -80 5 -4 17 21 30 61 3 10 10 16 14
13 5 -3 9 1 9 9 0 19 -1 19 -20 -3z"/>
<path d="M750 560 c-29 -29 -36 -67 -15 -90 10 -11 25 -20 34 -19 10 0 8 3 -6
9 -13 5 -24 15 -24 22 -3 34 4 55 27 76 14 12 20 22 15 22 -6 0 -20 -9 -31
-20z"/>
<path d="M775 539 c-4 -6 -5 -12 -2 -15 2 -3 7 2 10 11 7 17 1 20 -8 4z"/>
<path d="M921 513 c-6 -21 -11 -43 -11 -50 0 -7 -8 -17 -17 -22 -10 -6 -13
-11 -7 -11 18 0 30 21 42 70 14 55 7 66 -7 13z"/>
<path d="M362 515 c0 -16 2 -22 5 -12 2 9 2 23 0 30 -3 6 -5 -1 -5 -18z"/>
<path d="M452 498 c-15 -15 -16 -38 -1 -38 6 0 9 6 6 14 -3 7 0 19 6 25 6 6 9
11 6 11 -3 0 -10 -5 -17 -12z"/>
<path d="M481 494 c0 -11 3 -14 6 -6 3 7 2 16 -1 19 -3 4 -6 -2 -5 -13z"/>
<path d="M510 486 c0 -31 6 -34 13 -6 3 11 1 23 -4 26 -5 3 -9 -6 -9 -20z"/>
<path d="M576 497 c3 -10 9 -15 12 -12 3 3 0 11 -7 18 -10 9 -11 8 -5 -6z"/>
<path d="M834 495 c-10 -26 1 -35 13 -10 6 14 7 25 2 25 -5 0 -12 -7 -15 -15z"/>
<path d="M962 498 c-15 -15 -16 -38 -1 -38 5 0 7 5 4 10 -4 6 -1 17 5 25 15
18 9 20 -8 3z"/>
<path d="M991 494 c0 -11 3 -14 6 -6 3 7 2 16 -1 19 -3 4 -6 -2 -5 -13z"/>
<path d="M386 484 c-4 -9 -4 -19 -1 -22 2 -3 7 3 11 12 4 9 4 19 1 22 -2 3 -7
-3 -11 -12z"/>
<path d="M640 492 c0 -5 30 -34 31 -30 6 28 4 34 -12 34 -11 0 -19 -2 -19 -4z"/>
<path d="M867 480 c-3 -12 0 -20 8 -20 8 0 11 8 8 20 -3 11 -7 20 -8 20 -1 0
-5 -9 -8 -20z"/>
<path d="M265 470 c11 -5 29 -9 40 -9 17 -1 17 1 5 9 -8 5 -26 9 -40 9 -23 0
-23 -1 -5 -9z"/>
</g>
</svg>
